# xmcd
#
# Track frame offsets:
#	150
#	10215
#	25660
#	39808
#	59347
#	70345
#	84151
#	99359
#	112015
#	122347
#	135133
#	147842
#	162292
#	173581
#	189831
#
# Disc length: 2694 seconds
#
# Revision: 0
# Processed by: cddbd v1.5.1PL2 Copyright (c) Steve Scherf et al.
# Submitted via: EasyCDDAExtractor 9.0.0.1
#
DISCID=aa0a840f
DTITLE=Hank Koopman - Hank Koopman A Part Of Me
DYEAR=1900
DGENRE=Country
TTITLE0=Going Nowhere
TTITLE1=Part Of Me
TTITLE2=Return To Me
TTITLE3=Murder On Music Row
TTITLE4=Love Sick Blues - Why Don't You Love Me
TTITLE5=My Own Peculiar Way
TTITLE6=Blackboard Of My Heart
TTITLE7=Steel Guitar Rag
TTITLE8=Eighteen Yellow Roses
TTITLE9=I Pity The Mothers And The Fathers
TTITLE10=Stops Along The Way
TTITLE11=I Would Like To See You Again
TTITLE12=I Wish I Was Eighteen Again
TTITLE13=Camooweal  (Instrumental)
TTITLE14=Old Farts In Caravan Parks
EXTD=
EXTT0=
EXTT1=
EXTT2=
EXTT3=
EXTT4=
EXTT5=
EXTT6=
EXTT7=
EXTT8=
EXTT9=
EXTT10=
EXTT11=
EXTT12=
EXTT13=
EXTT14=
PLAYORDER=
